<svg width="24" height="24" viewBox="0 0 24 24" fill="none" xmlns="http://www.w3.org/2000/svg">
<path d="M7.78912 5.40347C8.32952 5.39344 8.86916 5.44884 9.39625 5.56847C9.84003 5.66536 10.2614 5.84566 10.6379 6.09978C10.9856 6.35248 11.2608 6.6922 11.4357 7.08485C11.6367 7.56768 11.7337 8.08746 11.7203 8.6103C11.7431 9.18438 11.5965 9.75249 11.2987 10.2438C10.9854 10.7079 10.5524 11.0785 10.0455 11.3163C10.7334 11.5018 11.3325 11.9266 11.7352 12.5143C12.1217 13.137 12.316 13.8599 12.2937 14.5925C12.3064 15.1766 12.1857 15.7559 11.9406 16.2862C11.714 16.7489 11.3823 17.1521 10.972 17.4635C10.5496 17.7716 10.0742 17.9995 9.5695 18.1359C9.04611 18.2807 8.50542 18.3534 7.96237 18.3521H2V5.40347H7.78912ZM7.44509 10.6407C7.86969 10.6582 8.28766 10.5311 8.63063 10.2801C8.79489 10.1339 8.92266 9.95128 9.00374 9.74686C9.08482 9.54244 9.11696 9.32189 9.09759 9.10283C9.10858 8.84698 9.05764 8.59226 8.94909 8.36032C8.85701 8.17565 8.71383 8.02131 8.53658 7.91564C8.35705 7.79932 8.15535 7.72151 7.94422 7.68711C7.71514 7.64273 7.48203 7.62255 7.24874 7.62688H4.70109V10.6522H7.44509V10.6407ZM7.59359 16.1534C7.85037 16.1569 8.10662 16.1292 8.35673 16.0709C8.58529 16.0204 8.80205 15.9266 8.99529 15.7945C9.1846 15.6625 9.33754 15.4849 9.43997 15.2781C9.55874 15.0143 9.61331 14.7262 9.5992 14.4374C9.62495 14.1741 9.59008 13.9085 9.49727 13.6608C9.40446 13.4131 9.25617 13.1899 9.06377 13.0084C8.65596 12.7081 8.1562 12.5593 7.65052 12.5877H4.70109V16.1534H7.59359Z" fill="black"/>
<path d="M16.1407 16.1055C16.3527 16.302 16.6025 16.4534 16.8748 16.5504C17.1471 16.6474 17.4363 16.6881 17.7248 16.6699C18.1821 16.6814 18.6306 16.5423 19.0011 16.2738C19.3025 16.0779 19.5307 15.7879 19.6503 15.4488H21.8045C21.5749 16.414 21.0145 17.2681 20.2204 17.8628C19.4587 18.3684 18.5585 18.6245 17.6447 18.5954C16.9926 18.604 16.3453 18.4814 15.7414 18.2349C15.1952 18.0071 14.7053 17.6627 14.3059 17.2259C13.9081 16.7682 13.6024 16.2379 13.4058 15.6642C13.1851 15.0229 13.0771 14.3482 13.0865 13.6701C13.0825 13.0033 13.1942 12.3409 13.4165 11.7123C13.7153 10.828 14.2865 10.0611 15.0482 9.52156C15.8099 8.98204 16.7229 8.69768 17.6563 8.7093C18.3454 8.6949 19.0268 8.85616 19.6363 9.17791C20.1873 9.48003 20.6626 9.90314 21.0265 10.4154C21.3987 10.953 21.6655 11.5563 21.8127 12.1933C21.9741 12.8774 22.0317 13.5819 21.9835 14.2831H15.5674C15.5154 14.9419 15.7209 15.5952 16.1407 16.1055V16.1055ZM18.9557 11.181C18.7761 11.0015 18.5602 10.8624 18.3224 10.7733C18.0846 10.6843 17.8304 10.6472 17.5771 10.6646C17.241 10.6518 16.9073 10.7262 16.6085 10.8807C16.3717 11.0111 16.1626 11.1866 15.9931 11.3972C15.8428 11.5947 15.7309 11.8185 15.6631 12.0572C15.6019 12.2563 15.5637 12.4616 15.5492 12.6694H19.5233C19.4887 12.1279 19.2914 11.6094 18.9573 11.1819L18.9557 11.181Z" fill="black"/>
<path d="M20.0166 6.26807H15.0369V7.54106H20.0166V6.26807Z" fill="black"/>
</svg>
