<svg width="213" height="213" viewBox="0 0 213 213" fill="none" xmlns="http://www.w3.org/2000/svg">
<rect width="213" height="213" fill="white"/>
<path opacity="0.75" d="M44.3098 156.455C71.8915 156.455 94.2822 134.052 94.2822 106.456C94.2822 78.8602 71.8915 56.4578 44.3098 56.4578V80.5656V156.455Z" fill="#536DFE"/>
<path opacity="0.75" d="M68.8699 156.455C96.4515 156.455 118.842 134.052 118.842 106.456C118.842 78.8602 96.4515 56.4578 68.8699 56.4578V80.5656V156.455Z" fill="#3F51B5"/>
<path opacity="0.75" d="M93.8948 156.455C121.476 156.455 143.867 134.052 143.867 106.456C143.867 78.8602 121.476 56.4578 93.8948 56.4578V80.5656V156.455Z" fill="#F44336"/>
<path opacity="0.75" d="M118.842 156.455C146.424 156.455 168.815 134.052 168.815 106.456C168.815 78.8602 146.424 56.4578 118.842 56.4578V80.5656V156.455Z" fill="#FFA000"/>
</svg>
