<svg width="132" height="17" viewBox="0 0 132 17" fill="none" xmlns="http://www.w3.org/2000/svg">
<path d="M10.78 14.3V13.32H9.96V12.28H9.14V11.2H8.14V9.5C10.12 8.98 11.2 7.72 11.2 5.12V3.48H9.92V2.34H8.08V0.999999H0.8V16H2.82V9.8H5.28H5.9V11.78H6.9V12.9H7.72V13.98H8.54V15.02H9.42V16H11.66V14.3H10.78ZM4.98 8.1H2.82V2.7H7.68V4.04H9.18V5.2C9.18 7.74 7.82 8.1 4.98 8.1ZM15.2609 13.56V3.48H17.2809V2.36H18.4009V0.92H26.1409V2.82H19.2209V4.76H17.2809V13.56H15.2609ZM29.0809 3.68V13.76H27.0609V14.88H25.9409V16.32H18.2009V14.42H25.1209V12.48H27.0609V3.68H29.0809ZM43.3906 11.66C43.3906 9.76 42.2706 8.38 40.2906 7.9C41.6306 7.64 42.6906 6.44 42.6906 4.82C42.6906 2.56 40.9706 0.999999 38.1706 0.999999H32.6906V16H40.4906V14.66H42.3306V13.24H43.3906V11.66ZM34.7106 2.7H37.8706C39.6706 2.7 40.6706 3.52 40.6706 4.8C40.6706 6.42 39.6706 7.22 37.8306 7.22H34.7106V2.7ZM34.7106 8.92H37.1706C40.0506 8.92 41.3706 9.9 41.3706 11.56V12.96H40.0906V14.3H34.7106V8.92ZM65.2016 4.76H67.4416V2.16H65.6016V0.819999H57.8616V2.52H65.2016V4.76ZM65.7216 12.06C65.0816 13.82 63.7216 14.6 62.0416 14.6C59.2816 14.6 57.4216 12.08 57.4216 8.3V4.16H55.4016V8.32C55.4016 13.1 58.0816 16.3 62.0616 16.3C64.6216 16.3 66.5816 15.06 67.6216 12.62L65.7216 12.06ZM83.0097 16H85.0897L79.6097 1.02H76.6697V3.14H75.9097V4.52H75.2497V5.94H74.7097V7.3H74.0697V8.74H73.4497V10.14H72.8897V11.5H72.3097V12.88H71.6497V14.28H71.2297V15.98H73.2497V14.58H73.6897V13.2H74.3497V11.84H74.9297V10.44H81.0097L83.0097 16ZM76.1097 8.74V7.64H76.7297V6.22H77.2697V4.84H77.9297V3.34H78.4697L80.4097 8.74H76.1097ZM98.6784 14.3V13.32H97.8584V12.28H97.0384V11.2H96.0384V9.5C98.0184 8.98 99.0984 7.72 99.0984 5.12V3.48H97.8184V2.34H95.9784V0.999999H88.6984V16H90.7184V9.8H93.1784H93.7984V11.78H94.7984V12.9H95.6184V13.98H96.4384V15.02H97.3184V16H99.5584V14.3H98.6784ZM92.8784 8.1H90.7184V2.7H95.5784V4.04H97.0784V5.2C97.0784 7.74 95.7184 8.1 92.8784 8.1ZM114.939 16H117.019L111.539 1.02H108.599V3.14H107.839V4.52H107.179V5.94H106.639V7.3H105.999V8.74H105.379V10.14H104.819V11.5H104.239V12.88H103.579V14.28H103.159V15.98H105.179V14.58H105.619V13.2H106.279V11.84H106.859V10.44H112.939L114.939 16ZM108.039 8.74V7.64H108.659V6.22H109.199V4.84H109.859V3.34H110.399L112.339 8.74H108.039ZM129.829 0.999999V9.02H129.509V7.92H128.669V6.72H127.689V5.62H126.669V4.4H125.709V3.3H124.869V2.1H123.889V0.999999H120.609V16H122.629V3.28H122.989V4.38H123.829V5.56H124.789V6.68H125.809V7.9H126.789V9H127.629V10.18H128.589V11.3H129.829V16H131.849V0.999999H129.829Z" fill="#2B2B2B"/>
</svg>
